<?xml version="1.0" encoding="UTF-8"?>
<!DOCTYPE svg PUBLIC "-//W3C//DTD SVG 1.1//EN" "http://www.w3.org/Graphics/SVG/1.1/DTD/svg11.dtd">
<!-- Creator: CorelDRAW X8 -->
<svg xmlns="http://www.w3.org/2000/svg" xml:space="preserve" width="921px" height="549px" version="1.1" style="shape-rendering:geometricPrecision; text-rendering:geometricPrecision; image-rendering:optimizeQuality; fill-rule:evenodd; clip-rule:evenodd"
viewBox="0 0 18629 11101"
 xmlns:xlink="http://www.w3.org/1999/xlink">
 <defs>
  <style type="text/css">
   <![CDATA[
    .fil0 {fill:#807F7E;fill-rule:nonzero}
    .fil1 {fill:white;fill-rule:nonzero}
   ]]>
  </style>
 </defs>
 <g id="Слой_x0020_1">
  <metadata id="CorelCorpID_0Corel-Layer"/>
  <g id="_1334988636032">
   <path class="fil0" d="M4219 11094c-703,7 -1315,-138 -1838,-437 -523,-298 -957,-699 -1304,-1201 -347,-503 -610,-1086 -790,-1750 -180,-664 -273,-1359 -280,-2083 -7,-724 73,-1418 240,-2080 167,-662 418,-1248 755,-1757 337,-510 764,-919 1281,-1227 517,-309 1126,-467 1829,-474 702,-7 1315,139 1837,437 523,298 958,699 1304,1202 347,502 610,1083 790,1742 180,658 273,1350 280,2074 7,725 -73,1421 -240,2088 -166,668 -418,1256 -755,1765 -337,510 -764,919 -1281,1228 -516,309 -1126,466 -1828,473zm-28 -2844c449,-4 777,-226 984,-665 206,-439 305,-1111 296,-2016 -8,-906 -120,-1573 -335,-2003 -215,-429 -547,-641 -997,-637 -449,5 -777,224 -984,657 -206,434 -305,1103 -296,2009 8,905 120,1575 335,2010 215,435 547,650 997,645z"/>
   <path id="1" class="fil0" d="M12322 6999c-269,2 -513,-44 -731,-139 -217,-95 -403,-226 -555,-392 -153,-167 -272,-364 -356,-591 -84,-227 -128,-472 -130,-733 -3,-262 36,-509 116,-741 80,-233 194,-436 344,-609 149,-174 332,-310 548,-409 216,-100 458,-151 728,-153 269,-3 514,43 735,138 221,95 410,228 566,398 156,171 276,371 361,602 84,231 128,477 130,739 3,261 -36,506 -116,735 -80,229 -196,428 -349,598 -153,170 -339,304 -558,404 -219,99 -463,150 -733,153zm-623 3829l4126 -7519 966 -10 -4136 7520 -956 9zm4476 90c-270,3 -513,-43 -731,-138 -218,-95 -403,-226 -556,-393 -153,-167 -271,-363 -355,-591 -85,-227 -128,-471 -131,-733 -2,-261 36,-508 116,-741 80,-232 195,-435 344,-609 150,-173 332,-309 548,-409 216,-99 459,-150 728,-153 270,-2 513,44 731,139 218,95 405,227 561,398 156,170 276,371 360,602 85,231 128,477 131,738 2,262 -36,507 -116,736 -80,229 -197,428 -349,598 -153,169 -337,304 -553,403 -216,99 -459,150 -728,153zm-3864 -5108c157,-1 292,-57 402,-166 111,-110 165,-284 163,-523 -3,-254 -60,-435 -173,-542 -113,-108 -248,-160 -406,-159 -151,2 -280,57 -388,167 -107,109 -159,291 -157,545 2,239 58,412 168,520 109,107 240,160 391,158zm3852 3920c158,-2 292,-55 403,-161 111,-106 165,-282 162,-529 -2,-254 -60,-435 -173,-542 -112,-107 -248,-160 -405,-158 -158,1 -290,57 -398,166 -107,110 -160,291 -157,545 2,247 58,422 168,526 109,103 243,154 400,153z"/>
   <path class="fil1" d="M4924 10876c-702,7 -1315,-137 -1837,-431 -523,-295 -958,-690 -1305,-1187 -346,-496 -610,-1072 -789,-1727 -180,-656 -273,-1341 -280,-2056 -7,-716 72,-1400 239,-2054 167,-654 419,-1232 756,-1735 337,-503 764,-907 1281,-1211 516,-305 1126,-461 1828,-468 703,-7 1315,137 1838,431 523,295 957,691 1304,1187 347,496 610,1069 790,1720 179,650 273,1333 280,2048 7,715 -73,1402 -240,2061 -167,659 -419,1240 -756,1743 -336,503 -763,907 -1280,1212 -517,305 -1126,460 -1829,467zm-27 -2808c449,-4 777,-223 983,-656 207,-434 306,-1097 297,-1991 -9,-894 -121,-1553 -336,-1977 -214,-424 -547,-633 -996,-629 -450,4 -778,221 -984,649 -207,428 -306,1089 -297,1983 9,894 121,1555 336,1984 215,429 547,642 997,637z"/>
   <path id="1" class="fil1" d="M13028 6833c-270,2 -513,-43 -731,-137 -218,-94 -403,-223 -556,-388 -153,-164 -271,-359 -355,-583 -85,-224 -128,-465 -131,-724 -2,-258 36,-502 116,-731 80,-230 195,-430 344,-601 150,-172 332,-306 548,-404 216,-98 459,-149 728,-151 270,-3 515,43 736,136 221,94 410,225 566,393 156,168 276,367 360,594 85,228 128,471 131,730 2,258 -36,500 -116,726 -80,226 -197,423 -349,590 -153,168 -339,300 -558,399 -220,98 -464,148 -733,151zm-623 3780l4126 -7423 965 -10 -4135 7424 -956 9zm4475 89c-269,3 -513,-43 -730,-136 -218,-94 -403,-223 -556,-388 -153,-164 -271,-359 -356,-583 -84,-224 -128,-466 -130,-724 -3,-258 36,-502 116,-732 80,-229 194,-430 344,-601 149,-171 332,-306 548,-404 216,-98 459,-148 728,-151 269,-2 513,43 731,137 217,94 404,225 560,393 156,168 277,366 361,594 84,228 128,471 130,730 3,258 -36,500 -116,726 -80,226 -196,422 -349,590 -152,167 -337,300 -553,398 -216,98 -458,149 -728,151zm-3864 -5043c158,-1 292,-56 403,-164 110,-108 165,-280 162,-516 -2,-251 -60,-430 -173,-536 -112,-105 -248,-158 -405,-156 -151,1 -281,56 -388,164 -107,108 -160,288 -157,539 2,236 58,407 167,513 110,106 240,158 391,156zm3853 3870c158,-1 292,-54 402,-159 111,-104 165,-278 163,-522 -3,-251 -60,-429 -173,-535 -113,-106 -248,-158 -406,-156 -157,1 -290,56 -397,164 -108,108 -160,288 -158,538 3,244 59,417 168,519 110,102 243,153 401,151z"/>
  </g>
 </g>
</svg>
