<?xml version="1.0" encoding="UTF-8"?>
<!DOCTYPE svg PUBLIC "-//W3C//DTD SVG 1.1//EN" "http://www.w3.org/Graphics/SVG/1.1/DTD/svg11.dtd">
<!-- Creator: CorelDRAW X8 -->
<svg xmlns="http://www.w3.org/2000/svg" xml:space="preserve" width="1000px" height="890px" version="1.1" style="shape-rendering:geometricPrecision; text-rendering:geometricPrecision; image-rendering:optimizeQuality; fill-rule:evenodd; clip-rule:evenodd"
viewBox="0 0 239 213"
 xmlns:xlink="http://www.w3.org/1999/xlink">
 <defs>
  <style type="text/css">
   <![CDATA[
    .str0 {stroke:#4D4D4D;stroke-width:6.10318}
    .fil0 {fill:none}
    .fil1 {fill:#4D4D4D}
    .fil2 {fill:#4D4D4D;fill-rule:nonzero}
   ]]>
  </style>
 </defs>
 <g id="Слой_x0020_1">
  <metadata id="CorelCorpID_0Corel-Layer"/>
  <g id="_1335071731568">
   <path class="fil0 str0" d="M99 89l0 92c0,38 137,39 137,-1l0 -90c0,-40 -137,-38 -137,-1z"/>
   <path class="fil1" d="M83 17c0,8 13,3 18,2 6,-2 17,-5 22,-6 -6,11 -40,58 -42,63l-9 -20c-2,-3 -3,-6 -5,-10 -2,-6 -1,-8 -8,-8 -2,0 -3,2 -4,4l-55 72c-1,5 4,8 7,6 5,-2 48,-63 52,-66l13 30c7,18 13,6 21,-7 4,-6 8,-13 13,-19 4,-6 8,-12 12,-18l13 -19 7 28c3,8 7,6 10,5 3,-12 -6,-31 -9,-44 0,-1 -1,-4 -1,-6 -1,-2 -1,-1 -2,-2 -3,-4 -9,-1 -16,1l-27 7c-4,1 -10,1 -10,7z"/>
   <ellipse class="fil0 str0" cx="167" cy="84" rx="68" ry="24"/>
   <path class="fil0 str0" d="M236 117c0,13 -30,24 -68,24 -38,0 -69,-11 -69,-24"/>
   <path class="fil0 str0" d="M236 150c0,13 -30,24 -68,24 -38,0 -69,-11 -69,-24"/>
   <path class="fil2" d="M166 81l0 -3c-1,0 -2,0 -2,0 -1,0 -1,1 -1,1 0,1 0,1 1,1 0,1 1,1 2,1zm3 6l0 4c1,0 2,0 2,-1 1,0 1,0 1,-1 0,0 0,-1 -1,-1 0,0 -1,-1 -2,-1zm-12 2c2,1 3,1 5,2 1,0 3,0 4,0l0 -5 -3 -1c-2,-1 -4,-1 -5,-2 -1,-1 -1,-2 -1,-4 0,-1 0,-2 2,-3 2,-1 4,-2 7,-2l0 -3 3 0 0 3c1,0 2,0 3,0 1,0 2,1 4,1l0 4c-2,0 -3,-1 -4,-1 -1,0 -2,0 -3,0l0 4 1 0c3,1 6,2 7,3 1,1 2,2 2,4 0,1 -1,3 -3,4 -2,1 -4,2 -7,2l0 4 -3 0 0 -4 0 0c-1,0 -2,0 -4,0 -1,0 -2,0 -4,-1l-1 -5z"/>
  </g>
 </g>
</svg>
