<?xml version="1.0" encoding="UTF-8"?>
<!DOCTYPE svg PUBLIC "-//W3C//DTD SVG 1.1//EN" "http://www.w3.org/Graphics/SVG/1.1/DTD/svg11.dtd">
<!-- Creator: CorelDRAW X8 -->
<svg xmlns="http://www.w3.org/2000/svg" xml:space="preserve" width="1201px" height="740px" version="1.1" style="shape-rendering:geometricPrecision; text-rendering:geometricPrecision; image-rendering:optimizeQuality; fill-rule:evenodd; clip-rule:evenodd"
viewBox="0 0 1668 1028"
 xmlns:xlink="http://www.w3.org/1999/xlink">
 <defs>
  <style type="text/css">
   <![CDATA[
    .fil1 {fill:#FEFEFE;fill-rule:nonzero}
    .fil0 {fill:#1F1B20;fill-rule:nonzero;fill-opacity:0.388235}
   ]]>
  </style>
 </defs>
 <g id="Слой_x0020_1">
  <metadata id="CorelCorpID_0Corel-Layer"/>
  <g id="_1335071757008">
   <path class="fil0" d="M670 284c-1,-172 -108,-284 -302,-282 -198,2 -307,90 -356,245 -12,40 -3,60 33,74l120 47c36,13 52,5 65,-38 21,-62 45,-90 113,-91 56,0 83,23 84,75 0,55 -36,76 -82,77l-54 0c-39,1 -51,16 -50,60l1 114c0,43 13,58 52,58l74 -1c52,0 80,21 81,81 0,55 -31,81 -94,82 -68,0 -104,-30 -124,-89 -15,-42 -30,-52 -66,-36l-118 49c-37,14 -46,35 -32,75 51,154 163,240 360,238 222,-3 327,-115 325,-305 -1,-100 -39,-182 -122,-231 60,-46 93,-115 92,-202zm195 162l1 73c1,92 54,149 153,148 99,-1 151,-59 150,-151l-1 -73c-1,-93 -54,-150 -153,-149 -99,1 -151,59 -150,152zm628 -143l-82 1c-39,1 -48,5 -66,35l-391 616c-13,21 -7,40 19,40l77 -1c43,0 50,-5 71,-36l389 -616c13,-21 6,-39 -17,-39zm-440 150l0 54c0,23 -11,36 -35,36 -25,0 -37,-12 -37,-35l-1 -55c0,-22 12,-34 36,-35 24,0 36,13 37,35zm239 331l1 72c0,93 54,150 153,149 99,-1 151,-59 150,-152l-1 -72c-1,-94 -54,-151 -153,-150 -99,1 -151,59 -150,153zm188 7l1 54c0,22 -12,35 -36,35 -24,0 -36,-12 -37,-34l0 -54c0,-24 11,-35 36,-36 24,0 36,12 36,35z"/>
   <path class="fil1" d="M742 296c-2,-171 -109,-281 -303,-279 -198,2 -307,89 -356,242 -12,39 -3,60 33,73l120 47c36,13 52,5 65,-38 21,-61 45,-89 113,-90 56,0 83,23 84,75 0,54 -36,75 -82,75l-54 1c-38,0 -50,15 -50,59l1 113c1,43 13,57 52,57l74 -1c52,0 80,21 81,80 0,55 -31,81 -94,81 -68,1 -104,-29 -124,-87 -15,-42 -29,-52 -66,-36l-118 49c-37,14 -46,34 -32,74 51,152 164,237 360,235 223,-2 327,-114 325,-302 -1,-98 -39,-180 -122,-228 60,-46 93,-114 93,-200z"/>
   <path id="1" class="fil1" d="M936 456l1 73c1,91 54,147 153,146 99,-1 151,-58 150,-149l0 -73c-1,-92 -55,-149 -154,-148 -98,1 -151,59 -150,151zm628 -141l-82 1c-39,0 -48,4 -66,34l-390 609c-14,22 -8,41 18,41l77 -1c43,-1 51,-6 71,-36l389 -610c13,-20 7,-38 -17,-38zm-440 148l0 53c0,23 -11,36 -35,36 -25,0 -37,-12 -37,-35l-1 -53c0,-22 12,-35 37,-35 23,-1 36,12 36,34zm239 328l1 71c1,92 54,148 153,147 99,-1 151,-58 150,-150l-1 -71c-1,-93 -54,-150 -153,-149 -99,1 -151,59 -150,152zm188 6l1 54c0,22 -12,35 -36,35 -24,0 -36,-12 -37,-34l0 -54c0,-23 12,-34 36,-35 24,0 36,11 36,34z"/>
  </g>
 </g>
</svg>
