<?xml version="1.0" encoding="UTF-8"?>
<!DOCTYPE svg PUBLIC "-//W3C//DTD SVG 1.1//EN" "http://www.w3.org/Graphics/SVG/1.1/DTD/svg11.dtd">
<!-- Creator: CorelDRAW X8 -->
<svg xmlns="http://www.w3.org/2000/svg" xml:space="preserve" width="1500px" height="1414px" version="1.1" style="shape-rendering:geometricPrecision; text-rendering:geometricPrecision; image-rendering:optimizeQuality; fill-rule:evenodd; clip-rule:evenodd"
viewBox="0 0 203 191"
 xmlns:xlink="http://www.w3.org/1999/xlink">
 <defs>
  <style type="text/css">
   <![CDATA[
    .str0 {stroke:#FEFEFE;stroke-width:4.84364}
    .fil0 {fill:#FEFEFE}
   ]]>
  </style>
 </defs>
 <g id="Слой_x0020_1">
  <metadata id="CorelCorpID_0Corel-Layer"/>
  <path class="fil0 str0" d="M191 62l0 109c-1,15 -10,14 -24,14 0,-28 1,-64 0,-90 0,-4 0,-3 -2,-4 -2,2 -1,16 -1,22l0 72 -24 0 0 -54c0,-5 1,-6 -2,-6 -2,3 -1,51 -1,59l-24 1 0 -78c0,-7 1,-8 -1,-9 -3,1 -2,16 -2,19l0 68 -24 0c0,-10 2,-84 -1,-87 -3,1 -2,4 -2,8l0 79 -23 0c-1,-8 1,-58 -2,-61 -3,2 -2,6 -2,14l0 47 -23 0c0,-8 1,-16 -3,-17 -2,3 -1,12 -1,17 -18,2 -14,-10 -18,-14 -4,3 0,11 3,13 4,4 9,5 16,5l126 0c14,0 29,2 35,-7 6,-8 3,-27 3,-39l0 -84c3,-1 6,-4 7,-8l0 -5c-1,-3 -4,-7 -9,-9 -6,-1 -10,1 -13,5 -4,5 -1,8 0,14l-36 37c-10,-4 -6,-3 -15,0 -25,-26 -15,-12 -15,-25 0,-13 -20,-15 -23,-2 -2,11 7,1 -9,18l-58 57c-4,-2 -3,-3 -10,-3l0 -83c0,-51 -6,-48 32,-48l123 0c17,0 22,-1 23,18 0,2 -1,1 1,2 3,-1 3,-4 2,-8 -1,-10 -5,-15 -17,-16 -13,-1 -30,0 -43,0 -13,0 -101,-1 -109,0 -22,2 -16,23 -16,49l0 87c-4,2 -6,5 -7,8l0 4c1,5 4,9 9,10 7,1 12,-2 14,-7 2,-4 0,-5 0,-8 0,-3 3,-4 5,-6 7,-7 13,-14 21,-21l41 -42c3,1 4,3 8,3 4,1 6,-1 9,-1l16 16c-1,4 -3,7 0,12 3,7 14,10 20,2 4,-6 1,-9 0,-14l36 -37c2,1 9,2 10,4zm-10 -10c-1,-2 -1,-4 0,-7 1,-2 2,-3 4,-4 11,-5 17,11 7,15 -5,2 -9,0 -11,-4zm-49 43c11,-4 15,12 6,15 -11,4 -15,-12 -6,-15zm-34 -33c11,-6 16,10 7,14 -4,3 -9,0 -11,-4 -1,-2 -1,-4 0,-6 1,-4 1,-3 4,-4zm-87 80c10,-5 16,11 7,15 -10,5 -17,-10 -7,-15z"/>
 </g>
</svg>
