<?xml version="1.0" encoding="UTF-8"?>
<!DOCTYPE svg PUBLIC "-//W3C//DTD SVG 1.1//EN" "http://www.w3.org/Graphics/SVG/1.1/DTD/svg11.dtd">
<!-- Creator: CorelDRAW X8 -->
<svg xmlns="http://www.w3.org/2000/svg" xml:space="preserve" width="1000px" height="884px" version="1.1" style="shape-rendering:geometricPrecision; text-rendering:geometricPrecision; image-rendering:optimizeQuality; fill-rule:evenodd; clip-rule:evenodd"
viewBox="0 0 250 221"
 xmlns:xlink="http://www.w3.org/1999/xlink">
 <defs>
  <style type="text/css">
   <![CDATA[
    .fil0 {fill:#FEFEFE}
   ]]>
  </style>
 </defs>
 <g id="Слой_x0020_1">
  <metadata id="CorelCorpID_0Corel-Layer"/>
  <g id="_1335077661392">
   <path class="fil0" d="M0 72c1,2 12,13 15,15 3,4 12,14 15,16 4,-6 11,-11 15,-15 3,-3 2,-4 2,-9 0,-12 13,-17 23,-10 9,6 32,33 41,40l19 -18c-2,-4 -25,-26 -29,-30 -5,-5 -10,-10 -15,-15l-14 -15c2,-5 14,-12 22,-14 16,-5 24,3 29,-9 -6,-3 -9,-5 -18,-7 -7,-2 -16,-1 -23,0 -15,4 -22,11 -32,20 -2,3 -4,4 -6,7 -3,3 -4,4 -7,6 -3,4 3,10 -6,18 -2,2 -5,3 -10,3 -5,0 -5,1 -8,4 -2,1 -2,2 -3,3 -3,3 -7,6 -10,10z"/>
   <path class="fil0" d="M216 221c0,1 -1,0 1,0l4 0c1,0 1,0 1,0 3,-2 9,-3 14,-9 8,-12 3,-23 -5,-31l-33 -33c-4,-3 -7,-7 -11,-11 -2,-1 -9,-9 -11,-10 -4,3 -28,26 -29,30 3,4 41,41 49,50 6,6 9,10 17,12 0,0 1,1 1,1l2 1z"/>
   <path class="fil0" d="M134 156c11,-11 22,-22 33,-33 6,-6 11,-11 17,-17 3,-3 5,-5 8,-8 14,-13 4,-7 21,-7 23,-1 42,-24 36,-50 -4,1 -9,8 -12,11 -1,1 -2,2 -3,3 -1,1 -2,2 -3,3 -2,2 -4,3 -8,3 -14,3 -26,-7 -24,-22 2,-12 16,-20 21,-27 -11,-7 -33,5 -38,10 -4,4 -8,11 -10,17 -1,4 -2,8 -1,12 0,12 3,7 -14,24l-38 39c-18,18 -35,35 -53,52 -5,6 -22,21 -24,28 -5,15 8,29 23,26 9,-2 15,-9 19,-14l50 -50zm-74 36c11,-2 13,14 3,16 -10,2 -14,-13 -3,-16z"/>
  </g>
 </g>
</svg>
