<?xml version="1.0" encoding="UTF-8"?>
<!DOCTYPE svg PUBLIC "-//W3C//DTD SVG 1.1//EN" "http://www.w3.org/Graphics/SVG/1.1/DTD/svg11.dtd">
<!-- Creator: CorelDRAW X8 -->
<svg xmlns="http://www.w3.org/2000/svg" xml:space="preserve" width="1078px" height="910px" version="1.1" style="shape-rendering:geometricPrecision; text-rendering:geometricPrecision; image-rendering:optimizeQuality; fill-rule:evenodd; clip-rule:evenodd"
viewBox="0 0 406 343"
 xmlns:xlink="http://www.w3.org/1999/xlink">
 <defs>
  <style type="text/css">
   <![CDATA[
    .fil0 {fill:#FEFEFE;fill-rule:nonzero}
   ]]>
  </style>
 </defs>
 <g id="Слой_x0020_1">
  <metadata id="CorelCorpID_0Corel-Layer"/>
  <g id="_1335029586240">
   <polygon class="fil0" points="59,186 95,182 95,39 59,39 59,14 137,0 137,182 173,186 173,212 59,212 "/>
   <polygon class="fil0" points="6,290 0,289 0,282 39,282 39,297 31,297 31,291 18,291 18,317 25,319 25,326 0,326 0,319 6,317 "/>
   <path id="1" class="fil0" d="M73 326c0,-1 -1,-2 -1,-2 0,-1 0,-2 -1,-3 -1,2 -3,3 -5,4 -2,1 -4,2 -7,2 -4,0 -8,-2 -10,-4 -3,-2 -4,-5 -4,-10 0,-4 2,-7 5,-9 3,-2 8,-4 15,-4l6 0 0 -4c0,-2 -1,-4 -2,-5 -1,-1 -3,-2 -5,-2 -2,0 -3,1 -4,1 -1,0 -2,1 -3,1l0 5 -9 0 0 -10c2,-2 4,-3 7,-4 3,-1 6,-1 9,-1 6,0 10,1 14,4 3,2 5,6 5,11l0 18c0,1 0,2 0,2 0,1 0,2 0,2l4 1 0 7 -14 0zm-11 -8c2,0 4,-1 5,-1 2,-1 3,-2 4,-3l0 -7 -6 0c-3,0 -5,1 -6,2 -1,1 -2,2 -2,4 0,2 0,3 1,4 1,0 3,1 4,1z"/>
   <path id="2" class="fil0" d="M90 289l0 -7 17 0 1 5c1,-2 3,-4 4,-5 2,-1 4,-1 7,-1 5,0 10,2 13,6 3,4 4,10 4,17l0 1c0,6 -1,12 -4,16 -3,4 -8,6 -13,6 -2,0 -4,-1 -6,-2 -2,-1 -4,-2 -5,-3l0 12 6 2 0 7 -24 0 0 -7 6 -2 0 -44 -6 -1zm34 15c0,-4 -1,-8 -2,-10 -1,-3 -3,-4 -6,-4 -2,0 -4,0 -5,1 -1,1 -2,2 -3,3l0 20c1,1 2,2 3,2 1,1 3,1 5,1 3,0 5,-1 6,-3 1,-2 2,-5 2,-9l0 -1z"/>
   <path id="3" class="fil0" d="M170 326c-1,-1 -1,-2 -1,-2 0,-1 -1,-2 -1,-3 -1,2 -3,3 -5,4 -2,1 -4,2 -7,2 -4,0 -8,-2 -10,-4 -3,-2 -4,-5 -4,-10 0,-4 2,-7 5,-9 3,-2 8,-4 15,-4l6 0 0 -4c0,-2 -1,-4 -2,-5 -1,-1 -3,-2 -6,-2 -1,0 -2,1 -3,1 -1,0 -2,1 -3,1l-1 5 -9 0 0 -10c3,-2 5,-3 8,-4 3,-1 6,-1 9,-1 6,0 10,1 13,4 4,2 6,6 6,11l0 18c0,1 0,2 0,2 0,1 0,2 0,2l3 1 0 7 -13 0zm-11 -8c2,0 4,-1 5,-1 2,-1 3,-2 4,-3l0 -7 -6 0c-3,0 -5,1 -6,2 -2,1 -2,2 -2,4 0,2 0,3 1,4 1,0 3,1 4,1z"/>
   <polygon id="4" class="fil0" points="188,289 188,282 212,282 212,289 207,290 207,299 221,299 221,290 216,289 216,282 221,282 233,282 240,282 240,289 233,290 233,317 240,319 240,326 216,326 216,319 221,317 221,309 207,309 207,317 212,319 212,326 188,326 188,319 195,317 195,290 "/>
   <polygon id="5" class="fil0" points="291,282 291,297 282,297 282,291 274,291 274,317 280,319 280,326 256,326 256,319 262,317 262,291 255,291 254,297 245,297 245,282 "/>
   <polygon id="6" class="fil0" points="321,282 321,289 316,290 316,308 316,308 330,282 342,282 348,282 348,289 342,290 342,317 348,319 348,326 324,326 324,319 330,317 330,299 330,299 316,326 297,326 297,319 304,317 304,290 297,289 297,282 316,282 "/>
   <polygon id="7" class="fil0" points="379,282 379,289 373,290 373,308 374,308 388,282 400,282 406,282 406,289 400,290 400,317 406,319 406,326 382,326 382,319 388,317 388,299 388,299 373,326 355,326 355,319 362,317 362,290 355,289 355,282 373,282 "/>
   <polygon class="fil0" points="234,206 241,205 241,162 234,161 234,153 279,153 279,169 270,169 270,163 252,163 252,205 259,206 259,213 234,213 "/>
   <path id="1" class="fil0" d="M278 191c0,-7 2,-12 5,-17 4,-4 9,-6 16,-6 6,0 11,2 15,6 4,4 6,10 6,17l0 0c0,7 -2,12 -6,17 -4,4 -9,6 -15,6 -7,0 -12,-2 -16,-6 -3,-5 -5,-10 -5,-17l0 0zm12 0c0,4 1,8 2,10 1,3 4,4 7,4 3,0 5,-1 7,-4 1,-2 2,-6 2,-10l0 0c0,-4 -1,-8 -2,-10 -2,-3 -4,-4 -7,-4 -3,0 -6,1 -7,4 -1,2 -2,6 -2,10l0 0z"/>
   <path id="2" class="fil0" d="M325 204c3,-3 5,-6 6,-9 1,-2 1,-6 1,-11l0 -7 -6 -1 0 -7 39 0 7 0 0 7 -7 1 0 27 7 0 -1 22 -11 0 0 -13 -26 0 0 13 -12 0 -1 -22 4 0zm19 -20c0,4 -1,8 -1,11 -1,4 -3,6 -4,9l14 0 0 -26 -9 0 0 6z"/>
  </g>
 </g>
</svg>
