<?xml version="1.0" encoding="UTF-8"?>
<!DOCTYPE svg PUBLIC "-//W3C//DTD SVG 1.1//EN" "http://www.w3.org/Graphics/SVG/1.1/DTD/svg11.dtd">
<!-- Creator: CorelDRAW X8 -->
<svg xmlns="http://www.w3.org/2000/svg" xml:space="preserve" width="1201px" height="813px" version="1.1" style="shape-rendering:geometricPrecision; text-rendering:geometricPrecision; image-rendering:optimizeQuality; fill-rule:evenodd; clip-rule:evenodd"
viewBox="0 0 131 88"
 xmlns:xlink="http://www.w3.org/1999/xlink">
 <defs>
  <style type="text/css">
   <![CDATA[
    .str0 {stroke:#FEFEFE;stroke-width:4.66022}
    .fil0 {fill:none}
    .fil1 {fill:#FEFEFE}
   ]]>
  </style>
 </defs>
 <g id="Слой_x0020_1">
  <metadata id="CorelCorpID_0Corel-Layer"/>
  <g id="_1335008287488">
   <g>
    <polygon class="fil0 str0" points="74,80 98,85 109,38 86,33 "/>
    <path class="fil0 str0" d="M110 38l-11 48c0,-1 5,-2 6,-2 2,-1 4,-2 6,-3l6 -23 5 -1 5 -24 -8 2c-3,1 -6,2 -9,3z"/>
    <g>
     <path class="fil1" d="M86 28c7,2 14,4 22,6 2,0 2,0 4,-1 1,-1 11,-3 12,-4l-21 -5c0,0 -1,0 -1,0l-16 4z"/>
    </g>
    <path class="fil0 str0" d="M86 56c-1,2 -1,4 0,6 3,5 10,3 12,-3 0,-2 -1,-4 -2,-7l-1 -6c0,0 0,-1 0,-1 -3,4 -8,8 -9,11z"/>
    <polygon class="fil0 str0" points="84,75 92,77 93,74 84,72 "/>
   </g>
   <g id="_1335008288320">
    <path class="fil1" d="M3 18l43 -2 3 39 0 1 -1 0 -42 2 0 0 -3 -40zm0 59c0,1 1,1 2,2 1,0 2,0 3,0 6,0 41,-2 43,-2 2,-1 2,-3 2,-5 0,-10 -1,-19 -1,-29 -1,-4 -2,-27 -2,-28 -1,-3 -2,-3 -5,-3 -5,1 -41,2 -43,3 -2,0 -2,2 -2,5 1,9 1,19 2,28 0,4 1,27 1,29z"/>
    <path class="fil1" d="M55 49c0,1 1,19 1,22 2,0 7,1 9,0 2,-1 2,-4 2,-7l10 -48c0,-3 1,-6 -1,-7 -2,-1 -37,-8 -41,-8 -3,-1 -6,-2 -7,1 0,1 -1,7 -1,8l3 0 2 -6 42 8c-1,3 -2,7 -2,10 -1,3 -5,28 -6,29l-11 -2z"/>
   </g>
  </g>
 </g>
</svg>
