<?xml version="1.0" encoding="UTF-8"?>
<!DOCTYPE svg PUBLIC "-//W3C//DTD SVG 1.1//EN" "http://www.w3.org/Graphics/SVG/1.1/DTD/svg11.dtd">
<!-- Creator: CorelDRAW X8 -->
<svg xmlns="http://www.w3.org/2000/svg" xml:space="preserve" width="649px" height="641px" version="1.1" style="shape-rendering:geometricPrecision; text-rendering:geometricPrecision; image-rendering:optimizeQuality; fill-rule:evenodd; clip-rule:evenodd"
viewBox="0 0 146 144"
 xmlns:xlink="http://www.w3.org/1999/xlink">
 <defs>
  <style type="text/css">
   <![CDATA[
    .fil0 {fill:#FEFEFE}
    .fil1 {fill:#FEFEFE;fill-rule:nonzero}
   ]]>
  </style>
 </defs>
 <g id="Слой_x0020_1">
  <metadata id="CorelCorpID_0Corel-Layer"/>
  <g id="_1335029562272">
   <g>
    <path class="fil0" d="M10 65c4,-22 19,-39 39,-46l-1 1c-1,2 0,5 2,7 1,0 1,0 2,0 2,0 4,-1 4,-2l7 -11c1,-1 1,-3 0,-4 0,-1 -1,-2 -2,-3l-11 -6c-2,-2 -5,-1 -7,1 -1,3 0,6 2,7l1 0c-23,9 -41,29 -45,54 -2,12 -1,24 3,36 1,2 3,3 5,3 0,0 1,0 1,0 3,-1 4,-4 3,-7 -4,-9 -4,-20 -3,-30z"/>
    <path class="fil0" d="M122 113c-2,-2 -5,-2 -7,0 -13,17 -35,25 -56,21 -10,-2 -20,-6 -28,-13l2 0c2,0 5,-2 5,-4 0,-3 -3,-5 -5,-5l-13 0c-1,0 -2,0 -3,1 -1,1 -2,2 -2,3 0,0 0,0 0,0 0,0 0,0 0,0 0,0 0,0 0,0 0,1 0,1 0,1l0 13c0,2 2,4 5,4l0 0c2,0 5,-2 5,-4l0 -2c9,8 20,13 32,15 4,1 8,1 12,1 21,0 40,-9 54,-24 1,-2 1,-5 -1,-7z"/>
    <path class="fil0" d="M146 89c-2,-2 -5,-3 -7,-2l-1 1c0,0 0,-1 0,-1 3,-18 -1,-37 -12,-52 -10,-15 -26,-25 -45,-28 -2,-1 -5,1 -5,3 0,3 1,5 4,6 16,3 29,11 39,25 9,13 12,29 9,44l0 -1c-2,-2 -4,-3 -7,-2 -2,2 -3,5 -1,7l6 11c1,1 2,2 3,2 0,0 1,0 1,0 1,0 2,0 3,0l11 -7c2,-1 3,-4 2,-6z"/>
   </g>
   <g>
   </g>
   <g>
   </g>
   <g>
   </g>
   <g>
   </g>
   <g>
   </g>
   <g>
   </g>
   <g>
   </g>
   <g>
   </g>
   <g>
   </g>
   <g>
   </g>
   <g>
   </g>
   <g>
   </g>
   <g>
   </g>
   <g>
   </g>
   <g>
   </g>
  </g>
  <path class="fil1" d="M43 92l0 -5 13 -13c1,-2 3,-4 3,-5 1,-2 2,-3 2,-4 0,-2 -1,-3 -2,-4 -1,-1 -2,-2 -4,-2 -1,0 -3,1 -4,2 -1,1 -1,3 -1,5l-8 0 0 0c0,-4 1,-7 4,-9 2,-3 5,-4 9,-4 4,0 8,1 10,3 2,2 3,5 3,9 0,2 0,4 -2,6 -1,2 -3,5 -6,8l-7 7 0 0 10 0 1 -3 5 0 0 9 -26 0z"/>
  <path id="1" class="fil1" d="M96 78l4 0 0 5 -4 0 0 4 4 1 0 4 -16 0 0 -4 4 -1 0 -4 -16 0 0 -4 16 -25 8 0 0 24zm-17 0l9 0 0 -14 0 0 -1 1 -8 13z"/>
 </g>
</svg>
