<?xml version="1.0" encoding="UTF-8"?>
<!DOCTYPE svg PUBLIC "-//W3C//DTD SVG 1.1//EN" "http://www.w3.org/Graphics/SVG/1.1/DTD/svg11.dtd">
<!-- Creator: CorelDRAW X8 -->
<svg xmlns="http://www.w3.org/2000/svg" xml:space="preserve" width="1200px" height="1179px" version="1.1" style="shape-rendering:geometricPrecision; text-rendering:geometricPrecision; image-rendering:optimizeQuality; fill-rule:evenodd; clip-rule:evenodd"
viewBox="0 0 225 221"
 xmlns:xlink="http://www.w3.org/1999/xlink">
 <defs>
  <style type="text/css">
   <![CDATA[
    .str0 {stroke:#4D4D4D;stroke-width:7.09574}
    .fil0 {fill:none}
   ]]>
  </style>
 </defs>
 <g id="Слой_x0020_1">
  <metadata id="CorelCorpID_0Corel-Layer"/>
  <g id="_1335036414640">
   <path class="fil0 str0" d="M156 43l0 17m0 39l0 113c0,3 -2,5 -5,5l-143 0c-2,0 -4,-2 -4,-5l0 -203c0,-3 2,-5 4,-5l109 0"/>
   <circle class="fil0 str0" cx="58" cy="37" r="19"/>
   <polyline class="fil0 str0" points="115,2 115,43 154,43 "/>
   <line class="fil0 str0" x1="114" y1="3" x2="158" y2= "46" />
   <polyline class="fil0 str0" points="45,52 36,87 59,80 80,85 70,53 "/>
   <line class="fil0 str0" x1="18" y1="128" x2="141" y2= "128" />
   <line class="fil0 str0" x1="19" y1="198" x2="140" y2= "198" />
   <line class="fil0 str0" x1="19" y1="198" x2="141" y2= "198" />
   <line class="fil0 str0" x1="18" y1="161" x2="141" y2= "161" />
   <line class="fil0 str0" x1="18" y1="144" x2="141" y2= "144" />
   <line class="fil0 str0" x1="18" y1="181" x2="141" y2= "181" />
   <rect class="fil0 str0" x="150" y="60" width="58.0827" height="38.7225" rx="7" ry="7"/>
   <path class="fil0 str0" d="M211 60l3 0c4,0 7,3 7,7l0 24c0,4 -3,7 -7,7l-3 0c-2,0 -3,-1 -3,-2l0 -34c0,-1 1,-2 3,-2z"/>
   <path class="fil0 str0" d="M147 98l-3 0c-4,0 -7,-3 -7,-7l0 -24c0,-4 3,-7 7,-7l3 0c2,0 3,1 3,2l0 34c0,1 -1,2 -3,2z"/>
   <rect class="fil0 str0" x="173" y="99" width="14.5217" height="118.11"/>
  </g>
 </g>
</svg>
