<?xml version="1.0" encoding="UTF-8"?>
<!DOCTYPE svg PUBLIC "-//W3C//DTD SVG 1.1//EN" "http://www.w3.org/Graphics/SVG/1.1/DTD/svg11.dtd">
<!-- Creator: CorelDRAW X8 -->
<svg xmlns="http://www.w3.org/2000/svg" xml:space="preserve" width="900px" height="900px" version="1.1" style="shape-rendering:geometricPrecision; text-rendering:geometricPrecision; image-rendering:optimizeQuality; fill-rule:evenodd; clip-rule:evenodd"
viewBox="0 0 343 343"
 xmlns:xlink="http://www.w3.org/1999/xlink">
 <defs>
  <style type="text/css">
   <![CDATA[
    .str0 {stroke:white;stroke-width:7.94384}
    .fil1 {fill:none}
    .fil0 {fill:#EC0086}
    .fil2 {fill:#FEFEFE;fill-rule:nonzero}
   ]]>
  </style>
 </defs>
 <g id="Слой_x0020_1">
  <metadata id="CorelCorpID_0Corel-Layer"/>
  <rect class="fil0" width="343" height="343" rx="98" ry="98"/>
  <g id="_1335212098112">
   <path class="fil1 str0" d="M91 283l0 -188c0,-3 2,-5 4,-6l101 -30c3,-1 5,0 5,3l0 28"/>
   <rect class="fil1 str0" x="91" y="90" width="156" height="197" rx="4" ry="3"/>
  </g>
  <path class="fil2" d="M171 230c0,1 -1,1 -2,1 -1,0 -2,0 -2,-1l-35 -33c0,0 0,-1 -1,-1 -1,-1 -2,-2 -3,-4 -2,-2 -3,-4 -4,-5 -1,-2 -2,-4 -3,-7 -1,-3 -1,-5 -1,-8 0,-8 2,-14 7,-18 5,-5 11,-7 19,-7 2,0 5,0 7,1 2,1 5,2 7,3 2,1 3,3 5,4 1,1 3,2 4,4 1,-2 3,-3 4,-4 2,-1 3,-3 5,-4 2,-1 5,-2 7,-3 2,-1 5,-1 7,-1 8,0 15,2 19,7 5,4 7,10 7,18 0,8 -4,17 -12,25l-35 33z"/>
 </g>
</svg>
