<?xml version="1.0" encoding="UTF-8"?>
<!DOCTYPE svg PUBLIC "-//W3C//DTD SVG 1.1//EN" "http://www.w3.org/Graphics/SVG/1.1/DTD/svg11.dtd">
<!-- Creator: CorelDRAW X8 -->
<svg xmlns="http://www.w3.org/2000/svg" xml:space="preserve" width="900px" height="900px" version="1.1" style="shape-rendering:geometricPrecision; text-rendering:geometricPrecision; image-rendering:optimizeQuality; fill-rule:evenodd; clip-rule:evenodd"
viewBox="0 0 4852 4852"
 xmlns:xlink="http://www.w3.org/1999/xlink">
 <defs>
  <style type="text/css">
   <![CDATA[
    .str1 {stroke:white;stroke-width:89.8434}
    .str0 {stroke:white;stroke-width:129.369}
    .str2 {stroke:white;stroke-width:86.2461}
    .str3 {stroke:white;stroke-width:16.1656}
    .fil1 {fill:none}
    .fil0 {fill:#00A3D3}
    .fil2 {fill:white}
   ]]>
  </style>
 </defs>
 <g id="Слой_x0020_1">
  <metadata id="CorelCorpID_0Corel-Layer"/>
  <rect class="fil0" width="4852" height="4852" rx="1385" ry="1233"/>
  <rect class="fil1 str0" x="1335" y="481" width="2182" height="3890" rx="247" ry="268"/>
  <rect class="fil2 str1" x="2237" y="3800" width="356" height="326" rx="476" ry="265"/>
  <line class="fil1 str2" x1="1506" y1="3585" x2="3345" y2= "3585" />
  <g id="_1335071772816">
   <path class="fil2 str3" d="M2396 1823c-10,2 -27,1 -37,1 -64,2 -168,21 -229,38 -108,31 -220,84 -309,148 -58,42 -116,89 -163,142 -10,11 -27,28 -36,40 -43,58 12,135 78,115 23,-7 30,-17 43,-32 35,-38 76,-83 117,-113 78,-58 102,-74 187,-115 70,-33 161,-59 236,-69 12,-2 19,-4 33,-5 46,-2 60,-5 111,-4 150,1 289,43 418,114 53,28 111,72 155,111 16,14 44,43 58,58 25,24 44,64 95,57 39,-5 69,-41 61,-87 -5,-26 -46,-67 -65,-86 -40,-41 -115,-108 -166,-139 -41,-24 -51,-32 -96,-57l-50 -25c-46,-19 -55,-25 -111,-42 -103,-32 -149,-37 -255,-49 -17,-2 -61,-3 -75,-1z"/>
   <path class="fil2 str3" d="M2368 2119c-17,2 -34,1 -50,4 -37,7 -55,8 -94,18l-43 13c-27,11 -50,18 -79,31 -98,45 -181,111 -251,192 -46,53 -1,131 64,121 34,-6 47,-27 65,-47 112,-126 303,-205 476,-188 62,6 123,20 177,43 99,41 158,89 224,162 9,9 16,18 32,24 32,13 64,4 82,-17 17,-19 28,-56 10,-85 -18,-29 -82,-91 -109,-111 -48,-35 -77,-59 -136,-86 -53,-26 -101,-44 -164,-58 -56,-13 -142,-23 -204,-16z"/>
   <path class="fil2 str3" d="M2378 2412c-11,2 -21,3 -31,4 -58,5 -131,38 -177,67 -27,16 -56,41 -76,62 -23,24 -50,52 -31,99 12,29 50,54 93,38 20,-7 27,-19 39,-31 17,-18 36,-35 56,-47 25,-16 41,-24 70,-34 33,-12 85,-18 125,-12 87,13 137,46 183,95 13,13 18,23 40,30 21,7 39,5 57,-4 34,-17 48,-60 33,-94 -11,-24 -48,-58 -66,-73 -78,-65 -205,-114 -315,-100z"/>
   <path class="fil2 str3" d="M2557 2851c0,-81 -64,-147 -146,-147 -80,0 -146,66 -146,145 0,81 63,146 145,147 83,0 147,-64 147,-145z"/>
  </g>
 </g>
</svg>
